<svg width="64" height="64" viewBox="0 0 64 64" fill="none" xmlns="http://www.w3.org/2000/svg">
  <rect width="64" height="64" rx="14" fill="#020617"/>
  <path d="M32 12L49 22V42L32 52L15 42V22L32 12Z" fill="#00599C"/>
  <path d="M32 21C26.5 21 22 25.5 22 31C22 36.5 26.5 41 32 41C35.4 41 38.4 39.2 40 36.6L36.4 34.4C35.6 35.7 34 36.5 32.4 36.5C29.6 36.5 27.4 34.3 27.4 31.5C27.4 28.7 29.6 26.5 32.4 26.5C34 26.5 35.6 27.3 36.4 28.6L40 26.4C38.4 23.8 35.4 21 32 21Z" fill="white"/>
  <path d="M42.2 27.2H44.2V29.2H46.2V31.1H44.2V33.1H42.2V31.1H40.2V29.2H42.2V27.2Z" fill="white"/>
  <path d="M42.2 33.9H44.2V35.9H46.2V37.8H44.2V39.8H42.2V37.8H40.2V35.9H42.2V33.9Z" fill="white"/>
</svg>
