<svg width="64" height="64" viewBox="0 0 64 64" fill="none" xmlns="http://www.w3.org/2000/svg">
  <rect width="64" height="64" rx="14" fill="#111827"/>
  <rect x="14" y="14" width="36" height="36" rx="8" fill="#F7DF1E"/>
  <path d="M30 25H34V39.5C34 42.5 32.4 44 29.1 44C27.6 44 26.3 43.6 25.3 42.9L26.8 39.7C27.3 40.1 27.9 40.3 28.5 40.3C29.4 40.3 30 39.9 30 38.6V25Z" fill="#111827"/>
  <path d="M37.5 38.2L40.7 36.3C41.2 37.3 41.9 38 43.3 38C44.4 38 45 37.5 45 36.8C45 35.9 44.3 35.6 42.9 35.1L42 34.8C39.8 34.1 38.3 32.9 38.3 30.5C38.3 27.9 40.4 26 43.6 26C45.9 26 47.5 26.8 48.5 28.8L45.5 30.6C45.1 29.8 44.6 29.4 43.6 29.4C42.8 29.4 42.3 29.8 42.3 30.4C42.3 31.2 42.8 31.5 44.1 32L45 32.3C47.6 33.2 49 34.3 49 36.8C49 39.6 46.8 41 43.7 41C40.8 41 38.9 39.7 37.5 38.2Z" fill="#111827"/>
</svg>
