<svg viewBox="0 0 128 128" xmlns="http://www.w3.org/2000/svg">
  <path d="M93.809 92.112c.785-6.533.55-7.492 5.416-6.433l1.235.108c3.742.17 8.637-.602 11.513-1.938 6.191-2.873 9.861-7.668 3.758-6.409-13.924 2.873-14.881-1.842-14.881-1.842 14.703-21.815 20.849-49.508 15.543-56.287-14.47-18.489-39.517-9.746-39.936-9.52l-.134.025c-2.751-.571-5.83-.912-9.289-.968-6.301-.104-11.082 1.652-14.535 4.41 0 0-44.19-18.2-42.153 22.94 1.214 27.037 17.483 81.5 37.618 60.179 7.36-7.795 14.467-14.395 14.467-14.395 3.534 2.349 7.764 3.546 12.206 3.114l.343-.299a10.146 10.146 0 00-.103 1.627c-3.868 4.32-2.733 5.076-10.483 6.646-7.833 1.588-3.232 4.418-.227 5.156 3.636.894 12.057 2.16 17.746-5.665l-.303.96c2.023 1.622 1.907 11.757 2.187 19.004.28 7.246.553 14.014 1.498 17.96.945 3.945 2.168 14.394 11.396 11.407 7.715-2.494 13.77-5.974 14.403-39.272z" fill="#336791"/>
  <path d="M62.137 107.876c-.198 6.922.166 13.88 1.258 15.7 1.092 1.82 3.443 4.39 10.963 2.168 6.292-1.86 8.445-4.063 9.181-9.552.612-4.569 1.294-12.682 1.384-18.271-3.469 2.391-8.9 3.252-14.786 2.023-2.643-.552-5.503-.377-8 7.932z" fill="#fff"/>
  <path d="M76.373 99.643c-.063 4.801-.291 9.932-.715 13.108-.612 4.569-2.89 7.692-9.181 9.552-7.52 2.222-9.871-.348-10.963-2.168-.786-1.31-1.214-5.31-1.258-10.353 0-.106-.003-.211-.003-.317l-.003-.077c-.063-5.893.353-12.39 1.003-14.633 2.497-8.309 5.357-8.484 8-7.932 5.886 1.229 11.317.368 14.786-2.023-.026 1.676-.063 3.391-.103 5.095-.003.127-.003.254-.003.381a.186.186 0 00.003.034c-.063 3.131-.166 6.191-.291 9.333-.003.127-.003.254-.003.381-.003.127-.003.254-.003.381-.003.127-.003.254-.003.381-.003.127-.003.254-.003.381-.003.127-.003.254-.003.381-.003.127-.003.254-.003.381-.003.127-.003.254-.003.381-.003.127-.003.254-.003.381-.003.127-.003.254-.003.381-.003.127-.003.254-.003.381-.003.127-.003.254-.003.381-.003.127-.003.254-.003.381-.003.127-.003.254-.003.381-.003.127-.003.254-.003.381-.003.127-.003.254-.003.381-.003.127-.003.254-.003.381-.003.127-.003.254-.003.381-.003.127-.003.254-.003.381-.003.127-.003.254-.003.381-.003.127-.003.254-.003.381-.003.127-.003.254-.003.381z" fill="#336791"/>
  <path d="M38.427 34.206c-.632.129-1.197.349-1.618.583-.131.073-.09.134.09.137.388.007.98-.09 1.345-.196.391-.114.334-.558.183-.524z" fill="#fff"/>
  <path d="M66.746 32.672c.092-.135.071-.292-.054-.376-.136-.092-.32-.078-.44.034-.092.085-.148.206-.148.334 0 .12.049.234.134.317.085.085.199.134.32.134.12 0 .234-.049.32-.134.085-.085.134-.199.134-.32 0-.12-.049-.234-.134-.317-.085-.085-.199-.134-.32-.134-.12 0-.234.049-.32.134-.085.085-.134.199-.134.32 0 .12.049.234.134.317.085.085.199.134.32.134.12 0 .234-.049.32-.134.085-.085.134-.199.134-.32 0-.12-.049-.234-.134-.317-.085-.085-.199-.134-.32-.134-.12 0-.234.049-.32.134-.085.085-.134.199-.134.32 0 .12.049.234.134.317.085.085.199.134.32.134.12 0 .234-.049.32-.134.085-.085.134-.199.134-.32 0-.12-.049-.234-.134-.317-.085-.085-.199-.134-.32-.134-.12 0-.234.049-.32.134-.085.085-.134.199-.134.32 0 .12.049.234.134.317.085.085.199.134.32.134.12 0 .234-.049.32-.134.085-.085.134-.199.134-.32 0-.12-.049-.234-.134-.317-.085-.085-.199-.134-.32-.134-.12 0-.234.049-.32.134-.085.085-.134.199-.134.32 0 .12.049.234.134.317.085.085.199.134.32.134.12 0 .234-.049.32-.134.085-.085.134-.199.134-.32 0-.12-.049-.234-.134-.317-.085-.085-.199-.134-.32-.134-.12 0-.234.049-.32.134-.085.085-.134.199-.134.32 0 .12.049.234.134.317.085.085.199.134.32.134.12 0 .234-.049.32-.134.085-.085.134-.199.134-.32 0-.12-.049-.234-.134-.317z" fill="#336791"/>
</svg>
