<svg width="64" height="64" viewBox="0 0 64 64" fill="none" xmlns="http://www.w3.org/2000/svg">
  <rect width="64" height="64" rx="14" fill="#020617"/>
  <path d="M32 14C24.3 14 20 19.3 20 26.2C20 29.5 20.9 33.9 22.2 36.9C23.5 40 25.6 42 27.8 43.2C29.3 44 30.7 44.3 32 44.3C33.3 44.3 34.7 44 36.2 43.2C38.4 42 40.5 40 41.8 36.9C43.1 33.9 44 29.5 44 26.2C44 19.3 39.7 14 32 14Z" fill="#32648C"/>
  <path d="M27.5 24.5C27.5 22.1 29.3 20.3 32 20.3C34.7 20.3 36.5 22.1 36.5 24.5C36.5 26.9 34.7 28.6 32 28.6C29.3 28.6 27.5 26.9 27.5 24.5Z" fill="#F5F5F5"/>
  <path d="M24.5 40.5C26.2 42.7 28.9 44 32 44C35.1 44 37.8 42.7 39.5 40.5C39 36.9 36.1 34.2 32 34.2C27.9 34.2 25 36.9 24.5 40.5Z" fill="#F5F5F5"/>
</svg>
