<svg width="64" height="64" viewBox="0 0 64 64" fill="none" xmlns="http://www.w3.org/2000/svg">
  <rect width="64" height="64" rx="14" fill="#020617"/>
  <path d="M32.3 14C27.2 14 24.1 16.2 24.1 20.1V24.5H32.6V26H20.4C16.3 26 14 28.9 14 32.9C14 37 16 40.1 20.3 40.1H22.7V35.5C22.7 31.2 26 28.8 30.2 28.8H39.9C43.8 28.8 46 26.6 46 22.7V20.1C46 16 43.7 14 39.3 14H32.3Z" fill="#3776AB"/>
  <path d="M31.7 50C36.8 50 39.9 47.8 39.9 43.9V39.5H31.4V38H43.6C47.7 38 50 35.1 50 31.1C50 27 48 23.9 43.7 23.9H41.3V28.5C41.3 32.8 38 35.2 33.8 35.2H24.1C20.2 35.2 18 37.4 18 41.3V43.9C18 48 20.3 50 24.7 50H31.7Z" fill="#FFD43B"/>
  <circle cx="28" cy="19" r="1.6" fill="#F5F5F5"/>
  <circle cx="36" cy="45" r="1.6" fill="#111827"/>
</svg>
