<svg width="64" height="64" viewBox="0 0 64 64" fill="none" xmlns="http://www.w3.org/2000/svg">
  <rect width="64" height="64" rx="14" fill="#020617"/>
  <rect x="14" y="14" width="36" height="36" rx="8" fill="#3178C6"/>
  <path d="M24 30H30V33H27.8V44H24.2V33H22V30Z" fill="white"/>
  <path d="M34.5 30H40.8C43.6 30 45.5 31.7 45.5 34.4C45.5 36.7 44.2 38 42.4 38.5L45.8 44H41.7L39 39.2H38.2V44H34.5V30ZM40.5 35.7C41.6 35.7 42.2 35.1 42.2 34.2C42.2 33.4 41.7 32.8 40.5 32.8H38.2V35.7H40.5Z" fill="white"/>
</svg>
